<?xml version="1.0" standalone="no"?>
<!DOCTYPE svg PUBLIC "-//W3C//DTD SVG 20010904//EN"
 "http://www.w3.org/TR/2001/REC-SVG-20010904/DTD/svg10.dtd">
<svg version="1.0" xmlns="http://www.w3.org/2000/svg"
 width="512.000000pt" height="512.000000pt" viewBox="0 0 512.000000 512.000000"
 preserveAspectRatio="xMidYMid meet">
<g transform="translate(0.000000,512.000000) scale(0.100000,-0.100000)"
fill="#1e40af" stroke="none">
<path d="M2379 4896 c-2 -2 -35 -7 -74 -10 -38 -4 -81 -9 -95 -11 -52 -9 -78
-14 -120 -23 -288 -61 -583 -188 -825 -356 -125 -87 -339 -297 -426 -417 -216
-300 -350 -628 -401 -979 -15 -104 -18 -149 -18 -304 0 -106 13 -273 26 -336
5 -25 12 -58 15 -75 3 -16 17 -77 32 -135 143 -555 518 -1036 1029 -1319 151
-83 367 -168 507 -198 32 -7 67 -14 76 -17 10 -2 44 -7 75 -11 32 -3 69 -8 83
-10 37 -6 247 -6 312 0 240 22 484 90 701 195 80 39 306 170 321 186 7 7 17
13 22 13 5 0 27 17 49 38 22 20 62 54 89 75 160 126 346 347 449 534 25 45 48
83 52 83 4 0 14 -28 22 -62 20 -84 68 -173 128 -236 116 -122 274 -182 445
-169 165 13 318 106 404 245 48 78 67 132 76 217 15 149 -42 314 -149 427 -72
75 -187 142 -280 162 -81 17 -193 14 -262 -7 -102 -31 -204 -102 -257 -180
-13 -19 -27 -37 -32 -40 -5 -4 -5 3 -1 14 4 11 9 228 11 482 l3 462 -24 82
c-36 124 -99 228 -190 314 -80 75 -182 130 -289 156 -63 15 -214 17 -276 4
-273 -58 -465 -277 -495 -564 l-6 -60 -103 103 c-252 253 -571 438 -919 534
-137 38 -358 78 -459 83 -65 3 -124 7 -130 8 -5 2 -12 2 -15 0z"/>
</g>
</svg>
